<svg width="153" height="149" viewBox="0 0 153 149" fill="none" xmlns="http://www.w3.org/2000/svg">
<path d="M13.5888 88.5853C-3.28782 83.8252 -4.86348 60.5196 11.2189 53.5313L132.049 1.02615C141.982 -3.29007 152.067 6.78962 147.756 16.7247L95.2929 137.617C88.2623 153.818 64.7441 152.08 60.171 135.022L53.6991 110.881C51.7243 103.514 46.0164 97.7316 38.676 95.6612L13.5888 88.5853Z" fill="#8DCFBE"/>
<path d="M47.7548 100.847L145.092 3.38123C148.422 6.59685 149.945 11.6794 147.756 16.7247L95.2929 137.617C88.2623 153.818 64.7441 152.08 60.171 135.022L53.6991 110.881C52.656 106.99 50.5714 103.54 47.7548 100.847Z" fill="url(#paint0_linear_18_317)"/>
<path fill-rule="evenodd" clip-rule="evenodd" d="M117.83 85.6838L95.6161 136.872C86.8078 135.35 80.2135 131.217 77.9614 124.86C73.5146 112.307 87.6803 95.8365 109.601 88.0707C112.364 87.0921 115.118 86.2985 117.83 85.6838Z" fill="url(#paint1_radial_18_317)"/>
<path d="M99.1642 107.592C92.4792 105.707 91.855 96.4795 98.2254 93.7126L146.088 72.9239C150.022 71.2149 154.017 75.2058 152.309 79.1395L131.528 127.005C128.743 133.42 119.427 132.732 117.616 125.978L115.052 116.419C114.27 113.503 112.009 111.213 109.101 110.393L99.1642 107.592Z" fill="#8DCFBE"/>
<path d="M112.698 112.447L151.254 73.8563C152.573 75.1295 153.176 77.1419 152.309 79.1395L131.528 127.005C128.743 133.42 119.427 132.732 117.616 125.978L115.052 116.419C114.639 114.879 113.813 113.513 112.698 112.447Z" fill="url(#paint2_linear_18_317)"/>
<defs>
<linearGradient id="paint0_linear_18_317" x1="144.136" y1="3.14074" x2="47.5302" y2="101.984" gradientUnits="userSpaceOnUse">
<stop stop-color="#8DCFBE"/>
<stop offset="1" stop-color="#3C917C"/>
</linearGradient>
<radialGradient id="paint1_radial_18_317" cx="0" cy="0" r="1" gradientUnits="userSpaceOnUse" gradientTransform="translate(117.653 110.799) rotate(70.4928) scale(24.1119 42.1087)">
<stop stop-color="#2C7E6A"/>
<stop offset="1" stop-color="#2C7E6A" stop-opacity="0"/>
</radialGradient>
<linearGradient id="paint2_linear_18_317" x1="150.875" y1="73.7611" x2="112.626" y2="112.914" gradientUnits="userSpaceOnUse">
<stop stop-color="#8DCFBE"/>
<stop offset="1" stop-color="#3C917C"/>
</linearGradient>
</defs>
</svg>